<svg width="124" height="153" viewBox="0 0 124 153" fill="none" xmlns="http://www.w3.org/2000/svg">
<g filter="url(#filter0_i_160_12611)">
<path d="M58.0248 32.9795C57.1602 32.9784 56.6953 32.4458 56.5632 31.6475C54.5813 20.8706 54.7815 20.3388 43.2115 18.2627C42.3472 18.0621 41.8822 17.5959 41.8833 16.7313C41.8843 15.9332 42.3505 15.4017 43.2153 15.2698C54.7903 13.2223 54.5915 12.69 56.6001 1.91807C56.7341 1.12013 57.2003 0.588639 58.0649 0.589711C58.9295 0.590783 59.3944 1.12343 59.5265 1.9217C61.5084 12.6986 61.3082 13.2304 72.8782 15.3065C73.6761 15.4405 74.2075 15.9733 74.2065 16.7714C74.2055 17.636 73.6728 18.1009 72.8745 18.2994C61.2994 20.3469 61.4982 20.8792 59.4896 31.6511C59.3556 32.4491 58.8894 32.9806 58.0248 32.9795ZM25.7778 78.6976C24.5806 78.6962 23.7171 77.8305 23.5192 76.5C21.413 58.7396 20.5489 58.2729 2.46216 55.3241C1.06573 55.1229 0.202018 54.3902 0.203667 53.06C0.205151 51.8629 1.07075 51.0658 2.20165 50.8677C20.4293 47.4318 21.4269 47.4996 23.5772 29.7444C23.7784 28.4144 24.6441 27.5509 25.8412 27.5524C27.1049 27.5539 27.9684 28.4196 28.0999 29.6835C30.4053 47.7102 31.0697 48.3096 49.4229 50.9262C50.5534 51.0606 51.4169 51.9263 51.4154 53.1235C51.4139 54.3872 50.5483 55.1842 49.4174 55.3823C31.0566 58.8845 30.458 58.8838 28.0417 76.6387C27.9072 77.8357 27.0415 78.6992 25.7778 78.6976ZM70.7796 152.312C69.0503 152.31 67.7882 151.045 67.5244 149.249C62.5814 112.862 57.5992 108.001 21.6903 103.234C19.7618 103.032 18.4998 101.701 18.5021 99.9049C18.5042 98.1757 19.7695 96.8471 21.6985 96.65C57.6847 92.704 62.8793 87.1237 67.6466 50.6828C67.9149 48.8874 69.18 47.6918 70.9093 47.6939C72.6385 47.6961 73.9007 48.8948 74.231 50.6909C78.9079 87.1436 84.0222 92.7367 120.065 96.7719C121.927 96.9737 123.189 98.3055 123.187 100.035C123.185 101.83 121.919 103.159 120.057 103.356C84.0041 107.302 78.876 112.883 74.1088 149.257C73.774 151.052 72.5088 152.314 70.7796 152.312Z" fill="url(#paint0_radial_160_12611)"/>
</g>
<defs>
<filter id="filter0_i_160_12611" x="0.203613" y="0.589722" width="122.983" height="155.259" filterUnits="userSpaceOnUse" color-interpolation-filters="sRGB">
<feFlood flood-opacity="0" result="BackgroundImageFix"/>
<feBlend mode="normal" in="SourceGraphic" in2="BackgroundImageFix" result="shape"/>
<feColorMatrix in="SourceAlpha" type="matrix" values="0 0 0 0 0 0 0 0 0 0 0 0 0 0 0 0 0 0 127 0" result="hardAlpha"/>
<feOffset dy="3.53667"/>
<feGaussianBlur stdDeviation="3.05038"/>
<feComposite in2="hardAlpha" operator="arithmetic" k2="-1" k3="1"/>
<feColorMatrix type="matrix" values="0 0 0 0 1 0 0 0 0 1 0 0 0 0 1 0 0 0 0.25 0"/>
<feBlend mode="normal" in2="shape" result="effect1_innerShadow_160_12611"/>
</filter>
<radialGradient id="paint0_radial_160_12611" cx="0" cy="0" r="1" gradientUnits="userSpaceOnUse" gradientTransform="translate(5.56316 -131.68) rotate(82.9351) scale(344.734 353.78)">
<stop stop-color="#AF52DE"/>
<stop offset="0.725962" stop-color="#B030F0"/>
<stop offset="1" stop-color="#AF52DE"/>
</radialGradient>
</defs>
</svg>
