<svg width="125" height="125" viewBox="0 0 125 125" fill="none" xmlns="http://www.w3.org/2000/svg">
<g filter="url(#filter0_i_160_12445)">
<path fill-rule="evenodd" clip-rule="evenodd" d="M61.0337 124.713C95.3494 125.476 123.786 98.2767 124.549 63.9611C125.313 29.6455 98.1129 1.20853 63.7973 0.445412C29.4816 -0.317709 1.0447 26.882 0.281578 61.1976C-0.481543 95.5132 26.7181 123.95 61.0337 124.713ZM94.3918 77.2642C87.0532 89.3246 75.1467 96.0752 61.7341 95.7769C48.3216 95.4787 36.7336 88.2125 29.9387 75.8309C29.555 75.1967 29.3037 74.4915 29.1997 73.7576C29.0957 73.0238 29.1412 72.2765 29.3335 71.5607C29.5258 70.8449 29.8609 70.1754 30.3186 69.5925C30.7764 69.0096 31.3473 68.5253 31.9971 68.1687C32.6468 67.8122 33.362 67.5907 34.0996 67.5177C34.8371 67.4447 35.5819 67.5217 36.2889 67.744C36.996 67.9663 37.6508 68.3293 38.2139 68.8112C38.777 69.2931 39.2368 69.8839 39.5657 70.5481C44.4987 79.5284 52.453 84.5768 61.9785 84.7887C71.504 85.0005 79.6751 80.3037 84.9954 71.5584C85.752 70.3123 86.9726 69.4179 88.3887 69.0718C89.8049 68.7258 91.3004 68.9564 92.5465 69.7131C93.7925 70.4697 94.687 71.6904 95.033 73.1065C95.3791 74.5226 95.1484 76.0182 94.3918 77.2642Z" fill="url(#paint0_radial_160_12445)"/>
</g>
<defs>
<filter id="filter0_i_160_12445" x="0.265869" y="0.429749" width="124.299" height="127.836" filterUnits="userSpaceOnUse" color-interpolation-filters="sRGB">
<feFlood flood-opacity="0" result="BackgroundImageFix"/>
<feBlend mode="normal" in="SourceGraphic" in2="BackgroundImageFix" result="shape"/>
<feColorMatrix in="SourceAlpha" type="matrix" values="0 0 0 0 0 0 0 0 0 0 0 0 0 0 0 0 0 0 127 0" result="hardAlpha"/>
<feOffset dy="3.53667"/>
<feGaussianBlur stdDeviation="3.05038"/>
<feComposite in2="hardAlpha" operator="arithmetic" k2="-1" k3="1"/>
<feColorMatrix type="matrix" values="0 0 0 0 1 0 0 0 0 1 0 0 0 0 1 0 0 0 0.25 0"/>
<feBlend mode="normal" in2="shape" result="effect1_innerShadow_160_12445"/>
</filter>
<radialGradient id="paint0_radial_160_12445" cx="0" cy="0" r="1" gradientUnits="userSpaceOnUse" gradientTransform="translate(9.2532 -109.114) rotate(82.499) scale(283.584 355.968)">
<stop stop-color="#00C7BE"/>
<stop offset="0.725962" stop-color="#00A69F"/>
<stop offset="1" stop-color="#00C7BE"/>
</radialGradient>
</defs>
</svg>
