<svg width="25" height="20" viewBox="0 0 25 20" fill="none" xmlns="http://www.w3.org/2000/svg">
<path d="M20.0416 8.32031C19.7031 8.32031 19.4166 8.20312 19.1823 7.96875C18.9479 7.72786 18.8307 7.44141 18.8307 7.10938C18.8307 6.77083 18.9479 6.48438 19.1823 6.25C19.4166 6.01562 19.7031 5.89844 20.0416 5.89844C20.3737 5.89844 20.6569 6.01562 20.8912 6.25C21.1321 6.48438 21.2526 6.77083 21.2526 7.10938C21.2526 7.44141 21.1321 7.72786 20.8912 7.96875C20.6569 8.20312 20.3737 8.32031 20.0416 8.32031ZM3.72327 19.4531C2.70113 19.4531 1.9329 19.1992 1.41858 18.6914C0.910767 18.1901 0.65686 17.4349 0.65686 16.4258V6.20117C0.65686 5.19857 0.910767 4.44661 1.41858 3.94531C1.9329 3.4375 2.70113 3.18359 3.72327 3.18359H6.44788C6.83199 3.18359 7.11519 3.13802 7.29749 3.04688C7.47978 2.94922 7.67834 2.77995 7.89319 2.53906L8.67444 1.66016C8.92183 1.39323 9.18876 1.18815 9.47522 1.04492C9.76819 0.901693 10.1653 0.830078 10.6666 0.830078H14.5631C15.0644 0.830078 15.4615 0.901693 15.7545 1.04492C16.0475 1.18815 16.3144 1.39323 16.5553 1.66016L17.3365 2.53906C17.4863 2.70182 17.6198 2.83203 17.7369 2.92969C17.8606 3.02083 18.0006 3.08594 18.1569 3.125C18.3131 3.16406 18.5214 3.18359 18.7819 3.18359H21.5748C22.5905 3.18359 23.3554 3.4375 23.8698 3.94531C24.3841 4.44661 24.6412 5.19857 24.6412 6.20117V16.4258C24.6412 17.4349 24.3841 18.1901 23.8698 18.6914C23.3554 19.1992 22.5905 19.4531 21.5748 19.4531H3.72327ZM3.7428 17.8809H21.5455C22.0273 17.8809 22.4017 17.7539 22.6686 17.5C22.9355 17.2396 23.069 16.8555 23.069 16.3477V6.28906C23.069 5.78125 22.9355 5.40039 22.6686 5.14648C22.4017 4.88607 22.0273 4.75586 21.5455 4.75586H18.3912C17.9485 4.75586 17.5905 4.70703 17.317 4.60938C17.0501 4.50521 16.7929 4.31641 16.5455 4.04297L15.7838 3.18359C15.5039 2.87109 15.2565 2.66276 15.0416 2.55859C14.8268 2.45443 14.5045 2.40234 14.0748 2.40234H11.1549C10.7252 2.40234 10.403 2.45443 10.1881 2.55859C9.97327 2.66276 9.72587 2.87109 9.44592 3.18359L8.6842 4.04297C8.43681 4.31641 8.17639 4.50521 7.90295 4.60938C7.63603 4.70703 7.28121 4.75586 6.8385 4.75586H3.7428C3.26103 4.75586 2.88668 4.88607 2.61975 5.14648C2.35933 5.40039 2.22913 5.78125 2.22913 6.28906V16.3477C2.22913 16.8555 2.35933 17.2396 2.61975 17.5C2.88668 17.7539 3.26103 17.8809 3.7428 17.8809ZM12.649 16.4746C11.9069 16.4746 11.2135 16.3379 10.569 16.0645C9.92444 15.791 9.35803 15.4102 8.86975 14.9219C8.38798 14.4336 8.00712 13.8672 7.72717 13.2227C7.45374 12.5781 7.31702 11.8815 7.31702 11.1328C7.31702 10.3906 7.45374 9.69727 7.72717 9.05273C8.00712 8.4082 8.38798 7.8418 8.86975 7.35352C9.35803 6.86523 9.92444 6.48438 10.569 6.21094C11.2135 5.9375 11.9069 5.80078 12.649 5.80078C13.6321 5.80078 14.5273 6.03841 15.3346 6.51367C16.1419 6.98893 16.7832 7.63021 17.2584 8.4375C17.7337 9.24479 17.9713 10.1432 17.9713 11.1328C17.9713 11.8815 17.8346 12.5781 17.5612 13.2227C17.2877 13.8672 16.9069 14.4336 16.4186 14.9219C15.9303 15.4102 15.3639 15.791 14.7194 16.0645C14.0748 16.3379 13.3847 16.4746 12.649 16.4746ZM12.649 14.9902C13.3587 14.9902 14.0032 14.8177 14.5826 14.4727C15.1686 14.1276 15.6341 13.6654 15.9791 13.0859C16.3242 12.5 16.4967 11.849 16.4967 11.1328C16.4967 10.4232 16.3242 9.77865 15.9791 9.19922C15.6341 8.61328 15.1686 8.14779 14.5826 7.80273C14.0032 7.45117 13.3587 7.27539 12.649 7.27539C11.9394 7.27539 11.2916 7.45117 10.7057 7.80273C10.1263 8.14779 9.66077 8.61328 9.3092 9.19922C8.96415 9.77865 8.79163 10.4232 8.79163 11.1328C8.79163 11.849 8.96415 12.5 9.3092 13.0859C9.66077 13.6654 10.1263 14.1276 10.7057 14.4727C11.2916 14.8177 11.9394 14.9902 12.649 14.9902Z" fill="#007AFF"/>
</svg>
