<svg width="9" height="14" viewBox="0 0 9 14" fill="none" xmlns="http://www.w3.org/2000/svg">
<path d="M8.40552 6.85938C8.40552 6.95833 8.38468 7.05208 8.34302 7.14062C8.30656 7.22396 8.25187 7.30208 8.17896 7.375L1.99146 13.4297C1.85083 13.5703 1.67896 13.6406 1.47583 13.6406C1.34562 13.6406 1.22583 13.6094 1.11646 13.5469C1.00708 13.4844 0.921143 13.3984 0.858643 13.2891C0.796143 13.1849 0.764893 13.0651 0.764893 12.9297C0.764893 12.737 0.832601 12.5677 0.968018 12.4219L6.65552 6.85938L0.968018 1.29688C0.832601 1.15104 0.764893 0.981771 0.764893 0.789062C0.764893 0.653646 0.796143 0.533854 0.858643 0.429688C0.921143 0.320312 1.00708 0.234375 1.11646 0.171875C1.22583 0.109375 1.34562 0.078125 1.47583 0.078125C1.67896 0.078125 1.85083 0.145833 1.99146 0.28125L8.17896 6.34375C8.25187 6.41667 8.30656 6.4974 8.34302 6.58594C8.38468 6.66927 8.40552 6.76042 8.40552 6.85938Z" fill="#3C3C43" fill-opacity="0.3"/>
</svg>
