<svg width="12" height="20" viewBox="0 0 12 20" fill="none" xmlns="http://www.w3.org/2000/svg">
<path d="M0.911621 10.0068C0.917155 9.81315 0.955892 9.63607 1.02783 9.47559C1.09977 9.3151 1.21045 9.16016 1.35986 9.01074L9.67725 0.958984C9.9152 0.721029 10.2085 0.602051 10.5571 0.602051C10.7896 0.602051 10.9998 0.657389 11.188 0.768066C11.3817 0.878743 11.5339 1.02816 11.6445 1.21631C11.7607 1.40446 11.8188 1.61475 11.8188 1.84717C11.8188 2.19027 11.6888 2.49186 11.4287 2.75195L3.9082 9.99854L11.4287 17.2534C11.6888 17.519 11.8188 17.8206 11.8188 18.1582C11.8188 18.3962 11.7607 18.6092 11.6445 18.7974C11.5339 18.9855 11.3817 19.1349 11.188 19.2456C10.9998 19.3618 10.7896 19.4199 10.5571 19.4199C10.2085 19.4199 9.9152 19.2982 9.67725 19.0547L1.35986 11.0029C1.20492 10.8535 1.09147 10.6986 1.01953 10.5381C0.947591 10.3721 0.911621 10.195 0.911621 10.0068Z" fill="#007AFF"/>
</svg>
