<svg width="28" height="28" viewBox="0 0 28 28" fill="none" xmlns="http://www.w3.org/2000/svg">
<rect width="28" height="28" rx="14" fill="#007AFF" fill-opacity="0.15"/>
<path d="M7.76611 15.7583C7.43962 15.7583 7.14355 15.6808 6.87793 15.5259C6.6123 15.3654 6.39925 15.1523 6.23877 14.8867C6.08382 14.6211 6.00635 14.3278 6.00635 14.0068C6.00635 13.6803 6.08382 13.3843 6.23877 13.1187C6.39925 12.853 6.6123 12.6427 6.87793 12.4878C7.14355 12.3273 7.43962 12.2471 7.76611 12.2471C8.08708 12.2471 8.38037 12.3273 8.646 12.4878C8.91162 12.6427 9.12191 12.853 9.27686 13.1187C9.43734 13.3843 9.51758 13.6803 9.51758 14.0068C9.51758 14.3278 9.43734 14.6211 9.27686 14.8867C9.12191 15.1523 8.91162 15.3654 8.646 15.5259C8.38037 15.6808 8.08708 15.7583 7.76611 15.7583ZM13.9917 15.7583C13.6707 15.7583 13.3774 15.6808 13.1118 15.5259C12.8462 15.3654 12.6331 15.1523 12.4727 14.8867C12.3177 14.6211 12.2402 14.3278 12.2402 14.0068C12.2402 13.6803 12.3177 13.3843 12.4727 13.1187C12.6331 12.853 12.8462 12.6427 13.1118 12.4878C13.3774 12.3273 13.6707 12.2471 13.9917 12.2471C14.3127 12.2471 14.606 12.3273 14.8716 12.4878C15.1427 12.6427 15.3558 12.853 15.5107 13.1187C15.6712 13.3843 15.7515 13.6803 15.7515 14.0068C15.7515 14.3278 15.6712 14.6211 15.5107 14.8867C15.3558 15.1523 15.1427 15.3654 14.8716 15.5259C14.606 15.6808 14.3127 15.7583 13.9917 15.7583ZM20.2256 15.7583C19.8991 15.7583 19.603 15.6808 19.3374 15.5259C19.0718 15.3654 18.8587 15.1523 18.6982 14.8867C18.5433 14.6211 18.4658 14.3278 18.4658 14.0068C18.4658 13.6803 18.5433 13.3843 18.6982 13.1187C18.8587 12.853 19.0718 12.6427 19.3374 12.4878C19.603 12.3273 19.8991 12.2471 20.2256 12.2471C20.5465 12.2471 20.8398 12.3273 21.1055 12.4878C21.3711 12.6427 21.5841 12.853 21.7446 13.1187C21.9051 13.3843 21.9854 13.6803 21.9854 14.0068C21.9854 14.3278 21.9051 14.6211 21.7446 14.8867C21.5841 15.1523 21.3711 15.3654 21.1055 15.5259C20.8398 15.6808 20.5465 15.7583 20.2256 15.7583Z" fill="#007AFF"/>
</svg>
