<svg width="25" height="25" viewBox="0 0 25 25" fill="none" xmlns="http://www.w3.org/2000/svg">
<path d="M18.6117 10.577C18.6117 11.316 17.9867 11.915 17.2157 11.915C16.4457 11.915 15.8207 11.315 15.8207 10.577C15.8207 9.83799 16.4457 9.23999 17.2157 9.23999C17.9857 9.23999 18.6117 9.83799 18.6117 10.577Z" fill="currentColor"/>
<path fill-rule="evenodd" clip-rule="evenodd" d="M18.136 6.032C17.076 5.896 15.722 5.896 14.013 5.896H10.187C8.47698 5.896 7.12298 5.896 6.06398 6.032C4.97398 6.173 4.08998 6.469 3.39398 7.136C2.69798 7.804 2.38898 8.65 2.24198 9.696C2.09998 10.71 2.09998 12.008 2.09998 13.647V13.747C2.09998 15.386 2.09998 16.684 2.24198 17.7C2.38898 18.745 2.69798 19.591 3.39398 20.258C4.08998 20.926 4.97398 21.222 6.06398 21.362C7.12398 21.5 8.47798 21.5 10.187 21.5H14.013C15.723 21.5 17.077 21.5 18.136 21.363C19.226 21.223 20.11 20.927 20.806 20.259C21.502 19.592 21.811 18.746 21.958 17.701C22.1 16.685 22.1 15.387 22.1 13.748V13.648C22.1 12.008 22.1 10.711 21.958 9.695C21.811 8.65 21.502 7.804 20.806 7.136C20.11 6.469 19.226 6.173 18.136 6.032ZM6.24998 7.358C5.31398 7.478 4.77498 7.705 4.37998 8.082C3.98698 8.46 3.75098 8.976 3.62498 9.873C3.52498 10.593 3.50198 11.493 3.49698 12.669L3.96698 12.274C5.09198 11.331 6.78598 11.385 7.84198 12.397L11.832 16.222C12.0297 16.4085 12.2849 16.5223 12.5558 16.5448C12.8267 16.5673 13.0971 16.4972 13.323 16.346L13.601 16.159C14.2531 15.7229 15.0297 15.5114 15.8129 15.5565C16.5961 15.6016 17.3432 15.9009 17.941 16.409L20.348 18.487C20.446 18.223 20.521 17.907 20.575 17.522C20.703 16.606 20.705 15.398 20.705 13.698C20.705 11.998 20.703 10.79 20.575 9.873C20.449 8.976 20.213 8.46 19.819 8.083C19.426 7.705 18.886 7.479 17.95 7.358C16.994 7.235 15.734 7.233 13.96 7.233H10.24C8.46598 7.233 7.20598 7.235 6.24998 7.358Z" fill="currentColor"/>
<path d="M17.1859 3.11C16.3259 3 15.2319 3 13.8669 3H10.7769C9.41294 3 8.31794 3 7.45794 3.11C6.56794 3.225 5.82594 3.468 5.23694 4.03C4.91187 4.34202 4.66399 4.72549 4.51294 5.15C5.01694 4.92 5.58694 4.784 6.22694 4.7C7.31094 4.56 8.69694 4.56 10.4469 4.56H14.3609C16.1109 4.56 17.4959 4.56 18.5809 4.7C19.1389 4.773 19.6449 4.886 20.0999 5.066C19.9476 4.6746 19.7114 4.32131 19.4079 4.031C18.8189 3.468 18.0769 3.225 17.1859 3.111V3.11Z" fill="currentColor"/>
</svg>
