<svg width="21" height="16" viewBox="0 0 21 16" fill="none" xmlns="http://www.w3.org/2000/svg">
<path d="M1.74023 3.36914C1.33008 3.36914 0.978516 3.22591 0.685547 2.93945C0.399089 2.64648 0.255859 2.29492 0.255859 1.88477C0.255859 1.48112 0.399089 1.13607 0.685547 0.849609C0.978516 0.556641 1.33008 0.410156 1.74023 0.410156C2.14388 0.410156 2.49219 0.556641 2.78516 0.849609C3.07812 1.13607 3.22461 1.48112 3.22461 1.88477C3.22461 2.29492 3.07812 2.64648 2.78516 2.93945C2.49219 3.22591 2.14388 3.36914 1.74023 3.36914ZM6.47656 2.91992C6.19661 2.91992 5.95573 2.81901 5.75391 2.61719C5.55859 2.40885 5.46094 2.16471 5.46094 1.88477C5.46094 1.60482 5.55859 1.36393 5.75391 1.16211C5.94922 0.960286 6.1901 0.859375 6.47656 0.859375H19.7188C20.0052 0.859375 20.2461 0.960286 20.4414 1.16211C20.6432 1.35742 20.7441 1.59831 20.7441 1.88477C20.7441 2.16471 20.6432 2.40885 20.4414 2.61719C20.2396 2.81901 19.9987 2.91992 19.7188 2.91992H6.47656ZM1.74023 9.43359C1.33008 9.43359 0.978516 9.29036 0.685547 9.00391C0.399089 8.71094 0.255859 8.36263 0.255859 7.95898C0.255859 7.54883 0.399089 7.20052 0.685547 6.91406C0.978516 6.62109 1.33008 6.47461 1.74023 6.47461C2.14388 6.47461 2.49219 6.62109 2.78516 6.91406C3.07812 7.20052 3.22461 7.54883 3.22461 7.95898C3.22461 8.36263 3.07812 8.71094 2.78516 9.00391C2.49219 9.29036 2.14388 9.43359 1.74023 9.43359ZM6.47656 8.98438C6.19661 8.98438 5.95573 8.88346 5.75391 8.68164C5.55859 8.47331 5.46094 8.23242 5.46094 7.95898C5.46094 7.67253 5.55859 7.42839 5.75391 7.22656C5.94922 7.02474 6.1901 6.92383 6.47656 6.92383H19.7188C20.0052 6.92383 20.2461 7.02474 20.4414 7.22656C20.6432 7.42839 20.7441 7.67253 20.7441 7.95898C20.7441 8.23893 20.6432 8.47982 20.4414 8.68164C20.2396 8.88346 19.9987 8.98438 19.7188 8.98438H6.47656ZM1.74023 15.498C1.33008 15.498 0.978516 15.3548 0.685547 15.0684C0.399089 14.7819 0.255859 14.4303 0.255859 14.0137C0.255859 13.61 0.399089 13.265 0.685547 12.9785C0.978516 12.6855 1.33008 12.5391 1.74023 12.5391C2.14388 12.5391 2.49219 12.6855 2.78516 12.9785C3.07812 13.265 3.22461 13.61 3.22461 14.0137C3.22461 14.4303 3.07812 14.7819 2.78516 15.0684C2.49219 15.3548 2.14388 15.498 1.74023 15.498ZM6.47656 15.0488C6.19661 15.0488 5.95573 14.9479 5.75391 14.7461C5.55859 14.5378 5.46094 14.2936 5.46094 14.0137C5.46094 13.7337 5.55859 13.4928 5.75391 13.291C5.94922 13.0892 6.1901 12.9883 6.47656 12.9883H19.7188C20.0052 12.9883 20.2461 13.0892 20.4414 13.291C20.6432 13.4863 20.7441 13.7272 20.7441 14.0137C20.7441 14.3001 20.6432 14.5443 20.4414 14.7461C20.2396 14.9479 19.9987 15.0488 19.7188 15.0488H6.47656Z" fill="currentColor"/>
</svg>
