<svg width="18" height="17" viewBox="0 0 18 17" fill="none" xmlns="http://www.w3.org/2000/svg">
<path d="M8.69995 16.9736C7.53231 16.9736 6.4366 16.7523 5.41284 16.3096C4.38908 15.8724 3.48983 15.2664 2.71509 14.4917C1.94035 13.7114 1.33162 12.8122 0.888916 11.7939C0.451742 10.7702 0.233154 9.67448 0.233154 8.50684C0.233154 7.33919 0.451742 6.24349 0.888916 5.21973C1.33162 4.19596 1.94035 3.29671 2.71509 2.52197C3.48983 1.74723 4.38908 1.14128 5.41284 0.704102C6.4366 0.261393 7.53231 0.0400391 8.69995 0.0400391C9.86759 0.0400391 10.9633 0.261393 11.9871 0.704102C13.0108 1.14128 13.9101 1.74723 14.6848 2.52197C15.4596 3.29671 16.0655 4.19596 16.5027 5.21973C16.9454 6.24349 17.1667 7.33919 17.1667 8.50684C17.1667 9.67448 16.9454 10.7702 16.5027 11.7939C16.0655 12.8122 15.4596 13.7114 14.6848 14.4917C13.9101 15.2664 13.0108 15.8724 11.9871 16.3096C10.9633 16.7523 9.86759 16.9736 8.69995 16.9736ZM4.64917 8.51514C4.64917 8.72542 4.71834 8.89697 4.85669 9.02979C4.99504 9.15706 5.17212 9.2207 5.38794 9.2207H7.98608V11.8271C7.98608 12.043 8.04972 12.2201 8.177 12.3584C8.30981 12.4912 8.48136 12.5576 8.69165 12.5576C8.90747 12.5576 9.08179 12.4912 9.2146 12.3584C9.35295 12.2201 9.42212 12.043 9.42212 11.8271V9.2207H12.0286C12.2389 9.2207 12.4132 9.15706 12.5515 9.02979C12.6899 8.89697 12.759 8.72542 12.759 8.51514C12.759 8.29932 12.6899 8.125 12.5515 7.99219C12.4187 7.85384 12.2444 7.78467 12.0286 7.78467H9.42212V5.18652C9.42212 4.9707 9.35295 4.79362 9.2146 4.65527C9.08179 4.51693 8.90747 4.44775 8.69165 4.44775C8.48136 4.44775 8.30981 4.51693 8.177 4.65527C8.04972 4.79362 7.98608 4.9707 7.98608 5.18652V7.78467H5.38794C5.17212 7.78467 4.99504 7.85384 4.85669 7.99219C4.71834 8.125 4.64917 8.29932 4.64917 8.51514Z" fill="white"/>
</svg>
