<svg width="16" height="16" viewBox="0 0 16 16" fill="none" xmlns="http://www.w3.org/2000/svg">
<path d="M0.217619 8.19312C0.217619 7.729 0.605961 7.34066 1.06061 7.34066H7.18884V1.22189C7.18884 0.767249 7.56771 0.378907 8.03183 0.378907C8.49595 0.378907 8.88429 0.767249 8.88429 1.22189V7.34066H15.0031C15.4577 7.34066 15.846 7.729 15.846 8.19312C15.846 8.65724 15.4577 9.03611 15.0031 9.03611H8.88429V15.1643C8.88429 15.619 8.49595 16.0073 8.03183 16.0073C7.56771 16.0073 7.18884 15.619 7.18884 15.1643V9.03611H1.06061C0.605961 9.03611 0.217619 8.65724 0.217619 8.19312Z" fill="white"/>
</svg>
