<svg width="16" height="4" viewBox="0 0 16 4" fill="none" xmlns="http://www.w3.org/2000/svg">
<path d="M1.76611 3.7583C1.43962 3.7583 1.14355 3.68083 0.87793 3.52588C0.612305 3.3654 0.399251 3.15234 0.23877 2.88672C0.0838216 2.62109 0.00634766 2.3278 0.00634766 2.00684C0.00634766 1.68034 0.0838216 1.38428 0.23877 1.11865C0.399251 0.853027 0.612305 0.642741 0.87793 0.487793C1.14355 0.327311 1.43962 0.24707 1.76611 0.24707C2.08708 0.24707 2.38037 0.327311 2.646 0.487793C2.91162 0.642741 3.12191 0.853027 3.27686 1.11865C3.43734 1.38428 3.51758 1.68034 3.51758 2.00684C3.51758 2.3278 3.43734 2.62109 3.27686 2.88672C3.12191 3.15234 2.91162 3.3654 2.646 3.52588C2.38037 3.68083 2.08708 3.7583 1.76611 3.7583ZM7.9917 3.7583C7.67074 3.7583 7.37744 3.68083 7.11182 3.52588C6.84619 3.3654 6.63314 3.15234 6.47266 2.88672C6.31771 2.62109 6.24023 2.3278 6.24023 2.00684C6.24023 1.68034 6.31771 1.38428 6.47266 1.11865C6.63314 0.853027 6.84619 0.642741 7.11182 0.487793C7.37744 0.327311 7.67074 0.24707 7.9917 0.24707C8.31266 0.24707 8.60596 0.327311 8.87158 0.487793C9.14274 0.642741 9.35579 0.853027 9.51074 1.11865C9.67122 1.38428 9.75146 1.68034 9.75146 2.00684C9.75146 2.3278 9.67122 2.62109 9.51074 2.88672C9.35579 3.15234 9.14274 3.3654 8.87158 3.52588C8.60596 3.68083 8.31266 3.7583 7.9917 3.7583ZM14.2256 3.7583C13.8991 3.7583 13.603 3.68083 13.3374 3.52588C13.0718 3.3654 12.8587 3.15234 12.6982 2.88672C12.5433 2.62109 12.4658 2.3278 12.4658 2.00684C12.4658 1.68034 12.5433 1.38428 12.6982 1.11865C12.8587 0.853027 13.0718 0.642741 13.3374 0.487793C13.603 0.327311 13.8991 0.24707 14.2256 0.24707C14.5465 0.24707 14.8398 0.327311 15.1055 0.487793C15.3711 0.642741 15.5841 0.853027 15.7446 1.11865C15.9051 1.38428 15.9854 1.68034 15.9854 2.00684C15.9854 2.3278 15.9051 2.62109 15.7446 2.88672C15.5841 3.15234 15.3711 3.3654 15.1055 3.52588C14.8398 3.68083 14.5465 3.7583 14.2256 3.7583Z" fill="#3C3C43" fill-opacity="0.6"/>
</svg>
